<svg xmlns="http://www.w3.org/2000/svg" width="217.07" height="35" viewBox="0 0 217.07 35"><rect class="svg__rect" x="0" y="0" width="134.76" height="35" fill="#66D631"/><rect class="svg__rect" x="132.76" y="0" width="84.31" height="35" fill="#ADE22B"/><path class="svg__text" d="M13.95 18.19L13.95 18.19L13.95 17.39Q13.95 16.19 14.38 15.27Q14.80 14.35 15.60 13.85Q16.40 13.35 17.45 13.35L17.45 13.35Q18.86 13.35 19.73 14.12Q20.59 14.89 20.73 16.29L20.73 16.29L19.25 16.29Q19.14 15.37 18.71 14.96Q18.28 14.55 17.45 14.55L17.45 14.55Q16.48 14.55 15.97 15.26Q15.45 15.96 15.44 17.33L15.44 17.33L15.44 18.09Q15.44 19.47 15.93 20.20Q16.43 20.92 17.38 20.92L17.38 20.92Q18.25 20.92 18.69 20.53Q19.13 20.14 19.25 19.22L19.25 19.22L20.73 19.22Q20.60 20.59 19.72 21.35Q18.84 22.12 17.38 22.12L17.38 22.12Q16.36 22.12 15.59 21.63Q14.81 21.15 14.39 20.26Q13.97 19.37 13.95 18.19ZM30.62 22L25.04 22L25.04 13.47L30.58 13.47L30.58 14.66L26.52 14.66L26.52 17.02L30.03 17.02L30.03 18.19L26.52 18.19L26.52 20.82L30.62 20.82L30.62 22ZM36.30 22L34.81 22L34.81 13.47L37.81 13.47Q39.29 13.47 40.09 14.13Q40.89 14.79 40.89 16.05L40.89 16.05Q40.89 16.90 40.48 17.48Q40.07 18.06 39.33 18.37L39.33 18.37L41.25 21.92L41.25 22L39.66 22L37.95 18.71L36.30 18.71L36.30 22ZM36.30 14.66L36.30 17.52L37.82 17.52Q38.57 17.52 38.99 17.15Q39.41 16.77 39.41 16.11L39.41 16.11Q39.41 15.43 39.02 15.05Q38.63 14.68 37.86 14.66L37.86 14.66L36.30 14.66ZM46.97 14.66L44.33 14.66L44.33 13.47L51.10 13.47L51.10 14.66L48.44 14.66L48.44 22L46.97 22L46.97 14.66ZM56.42 22L54.95 22L54.95 13.47L56.42 13.47L56.42 22ZM62.72 22L61.23 22L61.23 13.47L66.65 13.47L66.65 14.66L62.72 14.66L62.72 17.20L66.15 17.20L66.15 18.38L62.72 18.38L62.72 22ZM72.38 22L70.90 22L70.90 13.47L72.38 13.47L72.38 22ZM82.77 22L77.19 22L77.19 13.47L82.72 13.47L82.72 14.66L78.67 14.66L78.67 17.02L82.17 17.02L82.17 18.19L78.67 18.19L78.67 20.82L82.77 20.82L82.77 22ZM89.42 22L86.96 22L86.96 13.47L89.48 13.47Q90.61 13.47 91.49 13.97Q92.36 14.48 92.84 15.40Q93.32 16.33 93.32 17.52L93.32 17.52L93.32 17.95Q93.32 19.16 92.84 20.08Q92.36 21.00 91.46 21.50Q90.57 22 89.42 22L89.42 22ZM88.44 14.66L88.44 20.82L89.41 20.82Q90.58 20.82 91.20 20.09Q91.82 19.36 91.84 17.99L91.84 17.99L91.84 17.52Q91.84 16.13 91.23 15.40Q90.63 14.66 89.48 14.66L89.48 14.66L88.44 14.66ZM106.88 22L103.77 22L103.77 13.47L106.69 13.47Q108.14 13.47 108.89 14.05Q109.65 14.63 109.65 15.78L109.65 15.78Q109.65 16.36 109.33 16.83Q109.02 17.30 108.41 17.56L108.41 17.56Q109.10 17.75 109.48 18.26Q109.85 18.78 109.85 19.51L109.85 19.51Q109.85 20.71 109.08 21.36Q108.31 22 106.88 22L106.88 22ZM105.25 18.15L105.25 20.82L106.89 20.82Q107.59 20.82 107.98 20.47Q108.38 20.13 108.38 19.51L108.38 19.51Q108.38 18.18 107.02 18.15L107.02 18.15L105.25 18.15ZM105.25 14.66L105.25 17.06L106.70 17.06Q107.39 17.06 107.78 16.75Q108.17 16.43 108.17 15.86L108.17 15.86Q108.17 15.23 107.81 14.95Q107.45 14.66 106.69 14.66L106.69 14.66L105.25 14.66ZM116.36 18.86L113.50 13.47L115.14 13.47L117.11 17.51L119.07 13.47L120.71 13.47L117.85 18.86L117.85 22L116.36 22L116.36 18.86Z" fill="#FFFFFF"/><path class="svg__text" d="M146.52 17.80L146.52 17.80Q146.52 16.55 147.12 15.55Q147.73 14.56 148.79 14.00Q149.85 13.43 151.18 13.43L151.18 13.43Q152.51 13.43 153.58 14.00Q154.64 14.56 155.25 15.55Q155.85 16.55 155.85 17.80L155.85 17.80Q155.85 19.05 155.25 20.04Q154.64 21.04 153.58 21.60Q152.52 22.17 151.18 22.17L151.18 22.17Q149.85 22.17 148.79 21.60Q147.73 21.04 147.12 20.04Q146.52 19.05 146.52 17.80ZM148.92 17.80L148.92 17.80Q148.92 18.51 149.22 19.05Q149.52 19.60 150.04 19.90Q150.55 20.20 151.18 20.20L151.18 20.20Q151.82 20.20 152.34 19.90Q152.85 19.60 153.15 19.05Q153.45 18.51 153.45 17.80L153.45 17.80Q153.45 17.09 153.15 16.54Q152.85 16 152.34 15.70Q151.82 15.40 151.18 15.40L151.18 15.40Q150.55 15.40 150.03 15.70Q149.52 16 149.22 16.54Q148.92 17.09 148.92 17.80ZM160.00 21.24L160.00 21.24L160.78 19.49Q161.34 19.86 162.08 20.09Q162.83 20.32 163.55 20.32L163.55 20.32Q164.91 20.32 164.92 19.64L164.92 19.64Q164.92 19.28 164.53 19.11Q164.14 18.93 163.27 18.74L163.27 18.74Q162.32 18.53 161.69 18.30Q161.05 18.06 160.60 17.55Q160.14 17.03 160.14 16.16L160.14 16.16Q160.14 15.39 160.56 14.77Q160.98 14.15 161.82 13.79Q162.65 13.43 163.86 13.43L163.86 13.43Q164.68 13.43 165.49 13.62Q166.30 13.80 166.91 14.17L166.91 14.17L166.18 15.93Q164.98 15.28 163.85 15.28L163.85 15.28Q163.14 15.28 162.82 15.49Q162.49 15.70 162.49 16.04L162.49 16.04Q162.49 16.37 162.88 16.54Q163.26 16.71 164.11 16.89L164.11 16.89Q165.07 17.10 165.70 17.33Q166.33 17.56 166.79 18.07Q167.26 18.58 167.26 19.46L167.26 19.46Q167.26 20.21 166.84 20.83Q166.42 21.44 165.58 21.80Q164.74 22.17 163.54 22.17L163.54 22.17Q162.52 22.17 161.56 21.92Q160.59 21.67 160.00 21.24ZM171.40 17.80L171.40 17.80Q171.40 16.54 172.00 15.54Q172.60 14.55 173.65 13.99Q174.70 13.43 176.02 13.43L176.02 13.43Q177.18 13.43 178.10 13.84Q179.02 14.25 179.64 15.02L179.64 15.02L178.13 16.39Q177.31 15.40 176.15 15.40L176.15 15.40Q175.46 15.40 174.93 15.70Q174.39 16 174.10 16.54Q173.80 17.09 173.80 17.80L173.80 17.80Q173.80 18.51 174.10 19.05Q174.39 19.60 174.93 19.90Q175.46 20.20 176.15 20.20L176.15 20.20Q177.31 20.20 178.13 19.22L178.13 19.22L179.64 20.58Q179.03 21.35 178.10 21.76Q177.18 22.17 176.02 22.17L176.02 22.17Q174.70 22.17 173.65 21.61Q172.60 21.05 172.00 20.05Q171.40 19.06 171.40 17.80ZM185.59 22L183.16 22L186.87 13.60L189.22 13.60L192.93 22L190.47 22L189.80 20.37L186.25 20.37L185.59 22ZM188.03 15.93L186.94 18.61L189.11 18.61L188.03 15.93ZM199.47 22L197.09 22L197.09 13.60L200.93 13.60Q202.07 13.60 202.91 13.98Q203.75 14.35 204.21 15.06Q204.66 15.76 204.66 16.71L204.66 16.71Q204.66 17.62 204.23 18.30Q203.81 18.98 203.02 19.36L203.02 19.36L204.83 22L202.28 22L200.76 19.77L199.47 19.77L199.47 22ZM199.47 15.47L199.47 17.93L200.78 17.93Q201.52 17.93 201.89 17.61Q202.26 17.29 202.26 16.71L202.26 16.71Q202.26 16.12 201.89 15.79Q201.52 15.47 200.78 15.47L200.78 15.47L199.47 15.47Z" fill="#FFFFFF" x="145.76"/></svg>